PathFileType	4	(X/Y/Z)	Patient4_TMGait_0pt7_01_right_34.trc.trc
DataRate	CameraRate	NumFrames	NumMarkers	Units	OrigDataRate	OrigDataStartFrame	OrigNumFrames
87.500000000000	87.500000000000	6	33	mm	87.500000000000	106	       141
Frame#	Time	Sacral			L.Shoulder			Chest			R.Shoulder			Neck			R.ASIS			L.ASIS			R.Thigh.Superior			R.Thigh.Lateral			R.Thigh.Inferior			R.Patella			L.Thigh.Superior			L.Thigh.Lateral			L.Thigh.Inferior			L.Patella			L.Shank.Superior			L.Shank.Lateral			L.Shank.Inferior			R.Shank.Superior			R.Shank.Lateral			R.Shank.Inferior			R.Heel			R.Midfoot.Superior			R.Midfoot.Lateral			R.Toe			L.Heel			L.Midfoot.Lateral			L.Midfoot.Superior			L.Toe			L.Elbow			L.Wrist			R.Elbow			R.Wrist			
		X1	Y1	Z1	X2	Y2	Z2	X3	Y3	Z3	X4	Y4	Z4	X5	Y5	Z5	X6	Y6	Z6	X7	Y7	Z7	X8	Y8	Z8	X9	Y9	Z9	X10	Y10	Z10	X11	Y11	Z11	X12	Y12	Z12	X13	Y13	Z13	X14	Y14	Z14	X15	Y15	Z15	X16	Y16	Z16	X17	Y17	Z17	X18	Y18	Z18	X19	Y19	Z19	X20	Y20	Z20	X21	Y21	Z21	X22	Y22	Z22	X23	Y23	Z23	X24	Y24	Z24	X25	Y25	Z25	X26	Y26	Z26	X27	Y27	Z27	X28	Y28	Z28	X29	Y29	Z29	X30	Y30	Z30	X31	Y31	Z31	X32	Y32	Z32	X33	Y33	Z33	

106	39.910000000000	834.970021309316	1015.401289154191	420.337345450371	1042.759266546298	1430.035189285286	231.574996694661	1135.016734360794	1360.983642849034	399.877813031788	1048.057043375857	1446.936081441011	566.540478036113	1043.455222325934	1496.354797009881	384.296773578848	1054.812718684717	950.154123254404	549.240975923191	1055.692805758776	960.474306876698	274.045766913268	1140.441557945844	786.894972403729	533.384125886098	1100.719802721195	666.206525468544	608.816513583658	1196.468601611196	627.741074515485	536.891175009731	1219.040498044850	518.768165344147	563.919464169125	1088.398825672656	746.899370398900	304.090626648015	989.817012285978	637.164504008524	247.310123320173	1067.712945630869	553.408325604878	310.248716722158	1062.600006520300	484.077598925245	321.570635072629	1030.778405984357	414.578573265287	314.796736030643	933.251687389969	305.844236998507	266.986722647472	976.202982685815	192.536014399753	339.930822687704	1152.323416418738	438.089308426063	568.703839171362	1035.180621759435	382.420315683066	623.205451351748	1040.575125157067	271.001510494101	577.586058877835	853.466440740971	181.106785992973	540.491027173877	1026.613195852159	146.909722571290	593.786739516006	915.264966956066	130.585893550649	618.186201023649	1102.278136936139	42.502086308456	624.449040578959	840.723627865017	40.735283792887	385.464749227672	914.115935891624	36.102662402789	304.522750479707	998.231900126915	95.868969895493	330.191895583637	1126.210529305455	40.545168067942	300.849161621001	1044.363406324668	1081.027403272584	107.691422737506	1222.088321715856	888.894035447162	119.048964940522	990.136022115876	1105.780382781251	694.358598834216	1121.650798039015	879.925416883548	679.708057838590	
107	39.921428571429	833.769091498876	1015.793105252008	419.496559094929	1044.466646414822	1429.865622143458	231.341610675994	1135.055595992666	1360.580873482048	400.381871953215	1047.034595305071	1446.903299251516	566.191872182477	1043.778864859458	1496.244297637859	383.924251869815	1052.983202323396	950.385906847690	549.664279569283	1055.025461958212	960.407866742379	274.298500249829	1139.577897601509	788.998033753250	533.289141297578	1101.401815002836	667.643927266377	608.566098514509	1197.204991452575	630.260809349866	536.400190547808	1221.974744699379	522.841304199261	563.233952196101	1084.882920352325	745.850695529488	304.659716074443	984.827283759729	637.373369587573	247.084212166879	1060.924362692653	552.641181398201	310.373111039347	1054.709802846414	483.635022016978	321.714538916587	1023.155276360092	414.500973007319	314.679694033845	925.555488611460	305.908643384228	266.782516444731	968.330308168727	192.610340336385	339.918454164661	1158.825378532969	440.264796608648	568.470552897725	1045.466386849438	378.671221742291	624.174413441599	1056.226964471947	267.630154047477	578.514421727509	873.859898350356	167.966787927610	543.265945390303	1049.022643509522	142.945030489593	595.045852928777	938.885072863274	120.846739014043	620.329969813963	1130.204785334618	42.682477053416	625.052326746666	832.656273267397	40.789511737981	385.421420855830	906.052033224135	36.102126418731	304.517581167401	990.215271474022	95.898539419582	330.139953357570	1118.152371526969	40.507945194059	300.843304105396	1052.392373002520	1082.409817572765	105.007849987872	1238.152578596101	898.372226107203	118.770931059971	982.632077402144	1107.134406233379	694.941658405915	1097.790919117053	871.668722524590	686.450202983451	
108	39.932857142857	832.714822147463	1016.097649623407	418.820395496567	1046.147748836442	1429.643897767290	231.323527098731	1135.181557794548	1360.078310449918	401.003170888185	1046.188799216892	1446.730576724930	566.011519515434	1044.178626476112	1496.031246031472	383.769521997670	1051.307287373021	950.470005863312	550.131410458329	1054.357447830969	960.188437782421	274.623705239346	1138.413414791474	790.534378912827	533.115025587087	1101.453969177659	668.612119197525	608.272440393587	1197.145041966455	632.084218346725	535.801259081840	1223.986676678563	526.430935026948	562.393687119516	1081.366968969438	744.705280887984	305.353606662569	979.803633339097	637.550439717605	246.914054105412	1053.997515722769	551.844483323076	310.584919185431	1046.686793491890	483.208836432649	321.917081146394	1015.423513371131	414.440789970110	314.623992853866	917.801372160259	305.956258677051	266.605265795320	960.430470674413	192.688043268850	339.948253587839	1164.622471384409	442.167386430773	568.209379176135	1055.609100400940	374.651694702383	625.277003161432	1071.946965981709	264.285035476296	579.582817580906	895.191801672440	154.609405718812	546.324278502214	1071.830228619649	139.348148803007	596.458147669180	963.368837093945	111.361918264325	622.776670031788	1158.549206814596	43.884336351275	625.924668784199	824.591530273666	40.828462943086	385.380458837119	897.980352664698	36.095618729531	304.517921698513	982.193164413139	95.934004579245	330.098925212188	1110.084424475562	40.480834805129	300.846638957365	1059.890976536296	1083.882240234866	102.615225283406	1253.409353171546	908.474041396316	118.825149134630	975.007703724865	1108.636847692027	695.719650998743	1073.811756508496	865.230185878427	692.906638634077	
109	39.944285714286	831.821229236898	1016.303626817972	418.299815750610	1047.785593278220	1429.363126617933	231.519075666634	1135.393884302464	1359.472806615835	401.740228300500	1045.530991960933	1446.415425812930	566.013727136829	1044.658358873423	1495.708096075827	383.835273375664	1049.806321246824	950.402106249916	550.636179168048	1053.726501712480	959.829262650367	275.013046460630	1136.969083475803	791.456107476628	532.886498160415	1100.863761474838	669.079979806701	607.973835259644	1196.296923831760	633.170033794415	535.137334557698	1225.061283613312	529.487596466795	561.437193407988	1077.852241824012	743.454775642394	306.138409438667	974.737260169398	637.693938812024	246.789832191877	1046.946460433992	551.012820213928	310.854564453388	1038.569220791100	482.796414597242	322.138149636954	1007.590222946210	414.401760117891	314.610410935718	909.981432587083	305.993588698254	266.447561276369	952.501459695742	192.768763615764	340.005480755629	1169.685546614753	443.776968546459	567.938747404379	1065.537721249209	370.437041020807	626.489149394891	1087.600848291288	261.070888524308	580.740456598879	917.342500593670	141.269604628503	549.529497351821	1094.828650677654	136.288376238733	597.965240398856	988.514500167242	102.344518478190	625.413781687027	1187.009577708651	46.267949646835	627.005768321076	816.527969099667	40.853005333862	385.342232326106	889.901104785603	36.082356070744	304.523525318256	974.164943981913	95.971167642826	330.065677662652	1102.005715699148	40.463755941970	300.858993606362	1066.826548802328	1085.393638590912	100.518222152146	1267.779768210564	919.148997272221	119.193842979117	967.220963995330	1110.320198886440	696.657568601039	1049.992944641658	860.574099056112	698.971248101373	
110	39.955714285714	831.095165179113	1016.397365055893	417.924647373396	1049.365663778502	1429.015124076457	231.923213404508	1135.689177231734	1358.761118817569	402.590667366183	1045.066347929180	1445.956352727240	566.209643577922	1045.215278822489	1495.267212888581	384.120405252632	1048.502763077116	950.175729241651	551.176252965707	1053.173568969268	959.346917038761	275.458374694825	1135.281800006302	791.731400197482	532.640327669258	1099.649229168408	669.031245380861	607.719307212396	1194.698166859787	633.499944638899	534.458708551842	1225.210122787422	531.975848592941	560.412576980713	1074.338051987785	742.095499400611	306.978666115446	969.622751158764	637.802746251251	246.701473250949	1039.794206055922	550.142989608568	311.151934571212	1030.404922781923	482.391482637543	322.338807653661	999.669446277687	414.385925735816	314.619247630372	902.093096170821	306.028173116355	266.302871471127	944.541510144641	192.851552014329	340.075097644684	1173.999146199589	445.072354734805	567.679267774437	1075.160228059015	366.094773527144	627.772616676538	1103.022971525774	258.071062974013	581.923469424851	940.109412990534	128.181869112275	552.717089035308	1117.755901455155	133.884982263900	599.491797065135	1014.037894484826	93.967653814297	628.097701465996	1215.223831992946	49.897086795863	628.217177709740	808.464026053044	40.864441268478	385.307924376148	881.814963335235	36.061743491476	304.533927989565	966.130139078742	96.005478714374	330.037583818095	1093.916155562863	40.456629651835	300.880045693766	1073.179497271749	1086.893004380271	98.718515123169	1281.188967898277	930.328603423699	119.857190764842	959.262948232960	1112.211227478527	697.719672519991	1026.604035100672	857.609316028341	704.545365693509	
111	39.967142857143	830.538797794945	1016.360970697533	417.687159696884	1050.874128371672	1428.590235079443	232.528093509566	1136.060450783517	1357.940410790377	403.551308162844	1044.790851616318	1445.352278236277	566.605017068882	1045.838608036339	1494.700800859055	384.619717532998	1047.418820073209	949.781325762815	551.753229996853	1052.734630449856	958.753641162553	275.954930284558	1133.405063241451	791.348800335672	532.419642694900	1097.865274454563	668.466542088834	607.562085370528	1192.420292820476	633.081921306706	533.816867488079	1224.477460540697	533.874680791436	559.372468603575	1070.825745188961	740.628521280244	307.841577949286	964.465316022091	637.875208274892	246.639928827636	1032.577897984918	549.234069590505	311.450514843731	1022.253359759091	481.982845905928	322.487374944161	991.687328601408	414.391080587819	314.633168588919	894.144117850309	306.067370777677	266.166089671720	936.552116253837	192.933956763081	340.142857038579	1177.561321667664	446.030100150989	567.451129026199	1084.360354493629	361.681754069230	629.070888665021	1118.014559246688	255.339797202485	583.057664504171	963.194056934406	115.573284296189	555.700414708024	1140.292194747823	132.191397861192	600.948097847760	1039.564337583262	86.354838141727	630.660566049929	1242.768961762140	54.717602118209	629.469186875654	800.398540574530	40.864384644364	385.278764806864	873.723145831343	36.033321488856	304.548209225399	958.088385930621	96.032521901150	330.012498815547	1085.816755132162	40.458975159494	300.909165758467	1078.942311739754	1088.330271598475	97.215573790513	1293.568695818794	941.924428558808	120.793551226957	951.157730063840	1114.325980439191	698.873146408438	1003.890184056390	856.193093051061	709.547699500089	
